{
    "asset" : {
        "generator" : "Khronos glTF Blender I/O v1.6.16",
        "version" : "2.0"
    },
    "scene" : 0,
    "scenes" : [
        {
            "name" : "Scene",
            "nodes" : [
                5
            ]
        }
    ],
    "nodes" : [
        {
            "mesh" : 0,
            "name" : "Object_5.001"
        },
        {
            "children" : [
                0
            ],
            "name" : "pasta.1_1.001"
        },
        {
            "children" : [
                1
            ],
            "name" : "RootNode.0_0.001",
            "scale" : [
                0.009999999776482582,
                0.009999999776482582,
                0.009999999776482582
            ]
        },
        {
            "children" : [
                2
            ],
            "name" : "GLTF_SceneRootNode.001",
            "rotation" : [
                0.7071068286895752,
                0,
                0,
                0.7071068286895752
            ]
        },
        {
            "children" : [
                3
            ],
            "name" : "root.001"
        },
        {
            "children" : [
                4
            ],
            "name" : "Sketchfab_model.001",
            "rotation" : [
                -0.7071068286895752,
                0,
                0,
                0.7071068286895752
            ],
            "scale" : [
                1.2000000476837158,
                1.2000000476837158,
                1.2000000476837158
            ]
        }
    ],
    "materials" : [
        {
            "doubleSided" : true,
            "name" : "material_0.001",
            "normalTexture" : {
                "index" : 0
            },
            "occlusionTexture" : {
                "index" : 1
            },
            "pbrMetallicRoughness" : {
                "baseColorTexture" : {
                    "index" : 2
                },
                "metallicFactor" : 0
            }
        }
    ],
    "meshes" : [
        {
            "name" : "Object_0.001",
            "primitives" : [
                {
                    "attributes" : {
                        "POSITION" : 0,
                        "NORMAL" : 1,
                        "TEXCOORD_0" : 2,
                        "TEXCOORD_1" : 3,
                        "TEXCOORD_2" : 4,
                        "TEXCOORD_3" : 5,
                        "TEXCOORD_4" : 6
                    },
                    "indices" : 7,
                    "material" : 0
                }
            ]
        }
    ],
    "textures" : [
        {
            "sampler" : 0,
            "source" : 0
        },
        {
            "sampler" : 0,
            "source" : 1
        },
        {
            "sampler" : 0,
            "source" : 2
        }
    ],
    "images" : [
        {
            "mimeType" : "image/png",
            "name" : "material_0_normal",
            "uri" : "material_0_normal.png"
        },
        {
            "mimeType" : "image/png",
            "name" : "material_0_occlusion",
            "uri" : "material_0_occlusion.png"
        },
        {
            "mimeType" : "image/png",
            "name" : "material_0_diffuse",
            "uri" : "material_0_diffuse.png"
        }
    ],
    "accessors" : [
        {
            "bufferView" : 0,
            "componentType" : 5126,
            "count" : 33572,
            "max" : [
                16.280563354492188,
                11.886014938354492,
                16.28057861328125
            ],
            "min" : [
                -16.280563354492188,
                0.0184090007096529,
                -16.28057861328125
            ],
            "type" : "VEC3"
        },
        {
            "bufferView" : 1,
            "componentType" : 5126,
            "count" : 33572,
            "type" : "VEC3"
        },
        {
            "bufferView" : 2,
            "componentType" : 5126,
            "count" : 33572,
            "type" : "VEC2"
        },
        {
            "bufferView" : 3,
            "componentType" : 5126,
            "count" : 33572,
            "type" : "VEC2"
        },
        {
            "bufferView" : 4,
            "componentType" : 5126,
            "count" : 33572,
            "type" : "VEC2"
        },
        {
            "bufferView" : 5,
            "componentType" : 5126,
            "count" : 33572,
            "type" : "VEC2"
        },
        {
            "bufferView" : 6,
            "componentType" : 5126,
            "count" : 33572,
            "type" : "VEC2"
        },
        {
            "bufferView" : 7,
            "componentType" : 5123,
            "count" : 180210,
            "type" : "SCALAR"
        }
    ],
    "bufferViews" : [
        {
            "buffer" : 0,
            "byteLength" : 402864,
            "byteOffset" : 0
        },
        {
            "buffer" : 0,
            "byteLength" : 402864,
            "byteOffset" : 402864
        },
        {
            "buffer" : 0,
            "byteLength" : 268576,
            "byteOffset" : 805728
        },
        {
            "buffer" : 0,
            "byteLength" : 268576,
            "byteOffset" : 1074304
        },
        {
            "buffer" : 0,
            "byteLength" : 268576,
            "byteOffset" : 1342880
        },
        {
            "buffer" : 0,
            "byteLength" : 268576,
            "byteOffset" : 1611456
        },
        {
            "buffer" : 0,
            "byteLength" : 268576,
            "byteOffset" : 1880032
        },
        {
            "buffer" : 0,
            "byteLength" : 360420,
            "byteOffset" : 2148608
        }
    ],
    "samplers" : [
        {
            "magFilter" : 9729,
            "minFilter" : 9987
        }
    ],
    "buffers" : [
        {
            "byteLength" : 2509028,
            "uri" : "pasta.bin"
        }
    ]
}
